<svg xmlns="http://www.w3.org/2000/svg" viewBox="0 0 80 80" width="80" height="80" shape-rendering="crispEdges" role="img" aria-label="Personal Wiki face mark">
  <rect width="100%" height="100%" fill="#eee"/>
  <g fill="#fff">
    <rect x="35" y="1" width="15" height="1"/>
    <rect x="33" y="2" width="18" height="1"/>
    <rect x="31" y="3" width="21" height="1"/>
    <rect x="28" y="4" width="25" height="1"/>
    <rect x="23" y="6" width="32" height="1"/>
    <rect x="22" y="7" width="34" height="1"/>
    <rect x="22" y="8" width="35" height="1"/>
    <rect x="21" y="9" width="37" height="1"/>
    <rect x="21" y="10" width="38" height="1"/>
    <rect x="20" y="11" width="40" height="1"/>
    <rect x="20" y="12" width="40" height="1"/>
    <rect x="20" y="13" width="42" height="1"/>
    <rect x="19" y="14" width="43" height="1"/>
    <rect x="18" y="15" width="45" height="1"/>
    <rect x="17" y="16" width="47" height="1"/>
    <rect x="17" y="17" width="46" height="1"/>
    <rect x="17" y="18" width="47" height="1"/>
    <rect x="16" y="19" width="48" height="1"/>
    <rect x="16" y="20" width="48" height="1"/>
    <rect x="16" y="21" width="48" height="1"/>
    <rect x="16" y="22" width="48" height="1"/>
    <rect x="16" y="23" width="47" height="1"/>
    <rect x="16" y="24" width="47" height="1"/>
    <rect x="17" y="25" width="46" height="1"/>
    <rect x="17" y="26" width="45" height="1"/>
    <rect x="17" y="27" width="46" height="1"/>
    <rect x="18" y="28" width="45" height="1"/>
    <rect x="18" y="29" width="44" height="1"/>
    <rect x="18" y="30" width="44" height="1"/>
    <rect x="17" y="31" width="45" height="1"/>
    <rect x="18" y="32" width="44" height="1"/>
    <rect x="18" y="33" width="44" height="1"/>
    <rect x="18" y="34" width="44" height="1"/>
    <rect x="18" y="35" width="44" height="1"/>
    <rect x="18" y="36" width="44" height="1"/>
    <rect x="18" y="37" width="43" height="1"/>
    <rect x="18" y="38" width="43" height="1"/>
    <rect x="17" y="39" width="44" height="1"/>
    <rect x="17" y="40" width="44" height="1"/>
    <rect x="17" y="41" width="44" height="1"/>
    <rect x="17" y="42" width="44" height="1"/>
    <rect x="18" y="43" width="42" height="1"/>
    <rect x="18" y="44" width="42" height="1"/>
    <rect x="18" y="45" width="42" height="1"/>
    <rect x="18" y="46" width="42" height="1"/>
    <rect x="20" y="47" width="40" height="1"/>
    <rect x="19" y="48" width="41" height="1"/>
    <rect x="20" y="49" width="40" height="1"/>
    <rect x="21" y="50" width="39" height="1"/>
    <rect x="21" y="51" width="39" height="1"/>
    <rect x="21" y="52" width="39" height="1"/>
    <rect x="22" y="53" width="37" height="1"/>
    <rect x="21" y="54" width="38" height="1"/>
    <rect x="22" y="55" width="37" height="1"/>
    <rect x="22" y="56" width="36" height="1"/>
    <rect x="22" y="57" width="36" height="1"/>
    <rect x="23" y="58" width="35" height="1"/>
    <rect x="24" y="59" width="33" height="1"/>
    <rect x="23" y="60" width="34" height="1"/>
    <rect x="18" y="61" width="38" height="1"/>
    <rect x="18" y="62" width="37" height="1"/>
    <rect x="19" y="63" width="36" height="1"/>
    <rect x="20" y="64" width="34" height="1"/>
    <rect x="21" y="65" width="32" height="1"/>
    <rect x="22" y="66" width="30" height="1"/>
    <rect x="23" y="67" width="29" height="1"/>
    <rect x="24" y="68" width="28" height="1"/>
    <rect x="25" y="69" width="26" height="1"/>
    <rect x="26" y="70" width="25" height="1"/>
    <rect x="27" y="71" width="24" height="1"/>
    <rect x="28" y="72" width="22" height="1"/>
    <rect x="29" y="73" width="21" height="1"/>
    <rect x="30" y="74" width="20" height="1"/>
    <rect x="31" y="75" width="18" height="1"/>
    <rect x="32" y="76" width="19" height="1"/>
    <rect x="33" y="77" width="18" height="1"/>
    <rect x="34" y="78" width="17" height="1"/>
    <rect x="35" y="79" width="16" height="1"/>
  </g>
  <g fill="#000">
    <rect x="37" y="0" width="2" height="1"/>
    <rect x="45" y="0" width="3" height="1"/>
    <rect x="35" y="1" width="15" height="1"/>
    <rect x="33" y="2" width="18" height="1"/>
    <rect x="31" y="3" width="21" height="1"/>
    <rect x="28" y="4" width="25" height="1"/>
    <rect x="25" y="5" width="27" height="1"/>
    <rect x="53" y="5" width="1" height="1"/>
    <rect x="23" y="6" width="32" height="1"/>
    <rect x="22" y="7" width="34" height="1"/>
    <rect x="22" y="8" width="35" height="1"/>
    <rect x="21" y="9" width="37" height="1"/>
    <rect x="21" y="10" width="38" height="1"/>
    <rect x="20" y="11" width="19" height="1"/>
    <rect x="42" y="11" width="1" height="1"/>
    <rect x="44" y="11" width="16" height="1"/>
    <rect x="20" y="12" width="16" height="1"/>
    <rect x="46" y="12" width="14" height="1"/>
    <rect x="20" y="13" width="13" height="1"/>
    <rect x="49" y="13" width="13" height="1"/>
    <rect x="19" y="14" width="12" height="1"/>
    <rect x="51" y="14" width="11" height="1"/>
    <rect x="18" y="15" width="11" height="1"/>
    <rect x="53" y="15" width="10" height="1"/>
    <rect x="17" y="16" width="11" height="1"/>
    <rect x="54" y="16" width="10" height="1"/>
    <rect x="17" y="17" width="11" height="1"/>
    <rect x="55" y="17" width="8" height="1"/>
    <rect x="17" y="18" width="11" height="1"/>
    <rect x="55" y="18" width="9" height="1"/>
    <rect x="16" y="19" width="11" height="1"/>
    <rect x="56" y="19" width="8" height="1"/>
    <rect x="16" y="20" width="10" height="1"/>
    <rect x="56" y="20" width="8" height="1"/>
    <rect x="16" y="21" width="10" height="1"/>
    <rect x="57" y="21" width="7" height="1"/>
    <rect x="16" y="22" width="9" height="1"/>
    <rect x="57" y="22" width="7" height="1"/>
    <rect x="16" y="23" width="9" height="1"/>
    <rect x="57" y="23" width="6" height="1"/>
    <rect x="16" y="24" width="10" height="1"/>
    <rect x="58" y="24" width="5" height="1"/>
    <rect x="17" y="25" width="9" height="1"/>
    <rect x="58" y="25" width="5" height="1"/>
    <rect x="17" y="26" width="9" height="1"/>
    <rect x="58" y="26" width="4" height="1"/>
    <rect x="17" y="27" width="10" height="1"/>
    <rect x="58" y="27" width="5" height="1"/>
    <rect x="18" y="28" width="8" height="1"/>
    <rect x="58" y="28" width="5" height="1"/>
    <rect x="18" y="29" width="9" height="1"/>
    <rect x="36" y="29" width="3" height="1"/>
    <rect x="58" y="29" width="4" height="1"/>
    <rect x="18" y="30" width="10" height="1"/>
    <rect x="33" y="30" width="6" height="1"/>
    <rect x="47" y="30" width="4" height="1"/>
    <rect x="58" y="30" width="4" height="1"/>
    <rect x="17" y="31" width="8" height="1"/>
    <rect x="27" y="31" width="1" height="1"/>
    <rect x="30" y="31" width="9" height="1"/>
    <rect x="47" y="31" width="8" height="1"/>
    <rect x="58" y="31" width="4" height="1"/>
    <rect x="18" y="32" width="9" height="1"/>
    <rect x="28" y="32" width="11" height="1"/>
    <rect x="47" y="32" width="9" height="1"/>
    <rect x="58" y="32" width="4" height="1"/>
    <rect x="18" y="33" width="7" height="1"/>
    <rect x="27" y="33" width="5" height="1"/>
    <rect x="38" y="33" width="3" height="1"/>
    <rect x="46" y="33" width="2" height="1"/>
    <rect x="50" y="33" width="3" height="1"/>
    <rect x="54" y="33" width="3" height="1"/>
    <rect x="58" y="33" width="4" height="1"/>
    <rect x="18" y="34" width="7" height="1"/>
    <rect x="26" y="34" width="6" height="1"/>
    <rect x="35" y="34" width="1" height="1"/>
    <rect x="39" y="34" width="2" height="1"/>
    <rect x="45" y="34" width="2" height="1"/>
    <rect x="50" y="34" width="1" height="1"/>
    <rect x="55" y="34" width="7" height="1"/>
    <rect x="18" y="35" width="6" height="1"/>
    <rect x="27" y="35" width="11" height="1"/>
    <rect x="40" y="35" width="2" height="1"/>
    <rect x="46" y="35" width="8" height="1"/>
    <rect x="55" y="35" width="2" height="1"/>
    <rect x="59" y="35" width="3" height="1"/>
    <rect x="18" y="36" width="6" height="1"/>
    <rect x="27" y="36" width="9" height="1"/>
    <rect x="37" y="36" width="2" height="1"/>
    <rect x="40" y="36" width="2" height="1"/>
    <rect x="46" y="36" width="11" height="1"/>
    <rect x="59" y="36" width="3" height="1"/>
    <rect x="18" y="37" width="6" height="1"/>
    <rect x="28" y="37" width="4" height="1"/>
    <rect x="33" y="37" width="2" height="1"/>
    <rect x="40" y="37" width="2" height="1"/>
    <rect x="50" y="37" width="2" height="1"/>
    <rect x="54" y="37" width="2" height="1"/>
    <rect x="59" y="37" width="2" height="1"/>
    <rect x="18" y="38" width="6" height="1"/>
    <rect x="29" y="38" width="6" height="1"/>
    <rect x="40" y="38" width="1" height="1"/>
    <rect x="49" y="38" width="3" height="1"/>
    <rect x="53" y="38" width="3" height="1"/>
    <rect x="59" y="38" width="2" height="1"/>
    <rect x="17" y="39" width="7" height="1"/>
    <rect x="29" y="39" width="1" height="1"/>
    <rect x="59" y="39" width="2" height="1"/>
    <rect x="17" y="40" width="8" height="1"/>
    <rect x="30" y="40" width="1" height="1"/>
    <rect x="59" y="40" width="2" height="1"/>
    <rect x="17" y="41" width="8" height="1"/>
    <rect x="59" y="41" width="2" height="1"/>
    <rect x="17" y="42" width="8" height="1"/>
    <rect x="59" y="42" width="2" height="1"/>
    <rect x="18" y="43" width="7" height="1"/>
    <rect x="39" y="43" width="1" height="1"/>
    <rect x="59" y="43" width="1" height="1"/>
    <rect x="18" y="44" width="7" height="1"/>
    <rect x="38" y="44" width="1" height="1"/>
    <rect x="48" y="44" width="1" height="1"/>
    <rect x="59" y="44" width="1" height="1"/>
    <rect x="18" y="45" width="1" height="1"/>
    <rect x="20" y="45" width="6" height="1"/>
    <rect x="38" y="45" width="1" height="1"/>
    <rect x="41" y="45" width="2" height="1"/>
    <rect x="49" y="45" width="1" height="1"/>
    <rect x="59" y="45" width="1" height="1"/>
    <rect x="18" y="46" width="1" height="1"/>
    <rect x="20" y="46" width="6" height="1"/>
    <rect x="38" y="46" width="1" height="1"/>
    <rect x="40" y="46" width="4" height="1"/>
    <rect x="46" y="46" width="2" height="1"/>
    <rect x="49" y="46" width="1" height="1"/>
    <rect x="59" y="46" width="1" height="1"/>
    <rect x="20" y="47" width="6" height="1"/>
    <rect x="38" y="47" width="10" height="1"/>
    <rect x="50" y="47" width="1" height="1"/>
    <rect x="59" y="47" width="1" height="1"/>
    <rect x="19" y="48" width="1" height="1"/>
    <rect x="21" y="48" width="5" height="1"/>
    <rect x="38" y="48" width="10" height="1"/>
    <rect x="59" y="48" width="1" height="1"/>
    <rect x="20" y="49" width="7" height="1"/>
    <rect x="37" y="49" width="12" height="1"/>
    <rect x="51" y="49" width="1" height="1"/>
    <rect x="59" y="49" width="1" height="1"/>
    <rect x="21" y="50" width="8" height="1"/>
    <rect x="36" y="50" width="15" height="1"/>
    <rect x="52" y="50" width="1" height="1"/>
    <rect x="59" y="50" width="1" height="1"/>
    <rect x="21" y="51" width="7" height="1"/>
    <rect x="33" y="51" width="1" height="1"/>
    <rect x="35" y="51" width="7" height="1"/>
    <rect x="46" y="51" width="7" height="1"/>
    <rect x="58" y="51" width="2" height="1"/>
    <rect x="21" y="52" width="8" height="1"/>
    <rect x="33" y="52" width="8" height="1"/>
    <rect x="45" y="52" width="9" height="1"/>
    <rect x="57" y="52" width="3" height="1"/>
    <rect x="22" y="53" width="7" height="1"/>
    <rect x="33" y="53" width="12" height="1"/>
    <rect x="48" y="53" width="6" height="1"/>
    <rect x="57" y="53" width="2" height="1"/>
    <rect x="21" y="54" width="8" height="1"/>
    <rect x="33" y="54" width="7" height="1"/>
    <rect x="50" y="54" width="3" height="1"/>
    <rect x="57" y="54" width="2" height="1"/>
    <rect x="22" y="55" width="7" height="1"/>
    <rect x="33" y="55" width="6" height="1"/>
    <rect x="51" y="55" width="1" height="1"/>
    <rect x="56" y="55" width="3" height="1"/>
    <rect x="22" y="56" width="7" height="1"/>
    <rect x="34" y="56" width="15" height="1"/>
    <rect x="56" y="56" width="2" height="1"/>
    <rect x="22" y="57" width="9" height="1"/>
    <rect x="37" y="57" width="12" height="1"/>
    <rect x="52" y="57" width="1" height="1"/>
    <rect x="56" y="57" width="2" height="1"/>
    <rect x="23" y="58" width="8" height="1"/>
    <rect x="36" y="58" width="1" height="1"/>
    <rect x="38" y="58" width="5" height="1"/>
    <rect x="45" y="58" width="4" height="1"/>
    <rect x="50" y="58" width="1" height="1"/>
    <rect x="52" y="58" width="1" height="1"/>
    <rect x="55" y="58" width="3" height="1"/>
    <rect x="24" y="59" width="8" height="1"/>
    <rect x="33" y="59" width="2" height="1"/>
    <rect x="36" y="59" width="1" height="1"/>
    <rect x="40" y="59" width="1" height="1"/>
    <rect x="42" y="59" width="1" height="1"/>
    <rect x="46" y="59" width="1" height="1"/>
    <rect x="49" y="59" width="1" height="1"/>
    <rect x="53" y="59" width="4" height="1"/>
    <rect x="23" y="60" width="15" height="1"/>
    <rect x="39" y="60" width="5" height="1"/>
    <rect x="48" y="60" width="9" height="1"/>
    <rect x="18" y="61" width="23" height="1"/>
    <rect x="42" y="61" width="14" height="1"/>
    <rect x="18" y="62" width="30" height="1"/>
    <rect x="49" y="62" width="6" height="1"/>
    <rect x="19" y="63" width="27" height="1"/>
    <rect x="47" y="63" width="1" height="1"/>
    <rect x="49" y="63" width="6" height="1"/>
    <rect x="20" y="64" width="34" height="1"/>
    <rect x="21" y="65" width="32" height="1"/>
    <rect x="22" y="66" width="30" height="1"/>
    <rect x="23" y="67" width="29" height="1"/>
    <rect x="24" y="68" width="28" height="1"/>
    <rect x="25" y="69" width="26" height="1"/>
    <rect x="26" y="70" width="25" height="1"/>
    <rect x="27" y="71" width="24" height="1"/>
    <rect x="28" y="72" width="17" height="1"/>
    <rect x="46" y="72" width="1" height="1"/>
    <rect x="48" y="72" width="2" height="1"/>
    <rect x="29" y="73" width="15" height="1"/>
    <rect x="47" y="73" width="1" height="1"/>
    <rect x="49" y="73" width="1" height="1"/>
    <rect x="30" y="74" width="15" height="1"/>
    <rect x="46" y="74" width="1" height="1"/>
    <rect x="48" y="74" width="2" height="1"/>
    <rect x="31" y="75" width="5" height="1"/>
    <rect x="39" y="75" width="6" height="1"/>
    <rect x="46" y="75" width="3" height="1"/>
    <rect x="32" y="76" width="3" height="1"/>
    <rect x="42" y="76" width="6" height="1"/>
    <rect x="50" y="76" width="1" height="1"/>
    <rect x="33" y="77" width="1" height="1"/>
    <rect x="43" y="77" width="1" height="1"/>
    <rect x="47" y="77" width="1" height="1"/>
    <rect x="49" y="77" width="2" height="1"/>
    <rect x="34" y="78" width="1" height="1"/>
    <rect x="50" y="78" width="1" height="1"/>
    <rect x="35" y="79" width="2" height="1"/>
    <rect x="50" y="79" width="1" height="1"/>
  </g>
</svg>
